<svg id="Layer_1" enable-background="new 0 0 512 512" height="512" viewBox="0 0 512 512" width="512" xmlns="http://www.w3.org/2000/svg"><g><path d="m264.607 303.294h-240.763c-13.169 0-23.844-10.675-23.844-23.843v-89.139c0-13.169 10.675-23.844 23.844-23.844h240.763c13.168 0 23.844 10.675 23.844 23.844v89.139c0 13.168-10.675 23.843-23.844 23.843z" fill="#88c3e0"/><path d="m265.787 166.468h-30.905c12.517 0 22.664 11.231 22.664 25.085v86.657c0 13.854-10.147 25.085-22.664 25.085h30.905c12.517 0 22.664-11.231 22.664-25.085v-86.657c0-13.854-10.147-25.085-22.664-25.085z" fill="#6eabc9"/><path d="m425.466 203.078c-.574 4.068-1.944 9.893-3.168 14.627-1.143 4.422-5.123 7.514-9.69 7.514h-13.985c-4.567 0-8.547-3.092-9.69-7.514-1.224-4.734-2.594-10.559-3.168-14.627-.427-3.031-2.248-5.684-4.9-7.211l-12.922-7.442c-2.649-1.526-5.854-1.774-8.689-.63-3.825 1.543-9.592 3.278-14.325 4.591-4.395 1.219-9.058-.676-11.343-4.624l-6.983-12.065c-2.287-3.952-1.597-8.945 1.666-12.139 3.501-3.428 7.88-7.531 11.127-10.06 2.413-1.88 3.803-4.78 3.803-7.839v-14.865c0-3.059-1.39-5.959-3.803-7.839-3.247-2.53-7.625-6.633-11.127-10.06-3.263-3.194-3.953-8.187-1.666-12.139l6.983-12.065c2.285-3.948 6.947-5.843 11.343-4.624 4.733 1.312 10.5 3.048 14.325 4.591 2.835 1.144 6.04.896 8.689-.63l12.922-7.442c2.652-1.527 4.473-4.181 4.9-7.211.574-4.067 1.944-9.893 3.168-14.627 1.143-4.422 5.123-7.514 9.69-7.514h13.985c4.567 0 8.547 3.092 9.69 7.514 1.224 4.734 2.594 10.559 3.168 14.627.427 3.031 2.248 5.684 4.9 7.211l12.922 7.442c2.649 1.526 5.854 1.774 8.689.63 3.825-1.543 9.592-3.278 14.325-4.591 4.395-1.219 9.058.676 11.343 4.624l6.983 12.065c2.287 3.952 1.597 8.945-1.666 12.139-3.501 3.428-7.88 7.531-11.127 10.06-2.413 1.88-3.803 4.78-3.803 7.839v14.865c0 3.059 1.39 5.959 3.803 7.839 3.247 2.53 7.625 6.633 11.127 10.06 3.263 3.194 3.953 8.187 1.666 12.139l-6.983 12.065c-2.285 3.948-6.947 5.842-11.343 4.624-4.733-1.312-10.5-3.048-14.325-4.591-2.835-1.144-6.04-.896-8.689.63l-12.922 7.442c-2.653 1.527-4.473 4.18-4.9 7.211zm14.581-64.853c0-18.97-15.416-34.348-34.433-34.348s-34.433 15.378-34.433 34.348 15.416 34.348 34.433 34.348 34.433-15.378 34.433-34.348z" fill="#f78e36"/><path d="m128.773 420.314h30.905v29.875h-30.905z" fill="#43809f"/><path d="m508 512h-504c-2.209 0-4-1.791-4-4v-22.905c0-2.209 1.791-4 4-4h504c2.209 0 4 1.791 4 4v22.905c0 2.209-1.791 4-4 4z" fill="#43809f"/><path d="m287.195 63.84h-285.628l17.729-53.281c2.102-6.294 8.159-10.559 14.989-10.559h220.459c6.83 0 12.888 4.265 14.989 10.559z" fill="#29cef6"/><path d="m269.444 10.559c-2.102-6.294-8.159-10.559-14.989-10.559h-30.905c6.83 0 12.888 4.265 14.989 10.559l17.461 53.281h30.905z" fill="#22b5ed"/><path d="m265.787 173.07h-243.123c-12.517 0-22.664-10.147-22.664-22.664v-78.293c0-12.517 10.147-22.664 22.664-22.664h243.123c12.517 0 22.664 10.147 22.664 22.664v78.294c0 12.516-10.147 22.663-22.664 22.663z" fill="#a9dbf5"/><path d="m265.787 49.449h-30.905c12.517 0 22.664 10.147 22.664 22.664v78.294c0 12.517-10.147 22.664-22.664 22.664h30.905c12.517 0 22.664-10.147 22.664-22.664v-78.294c0-12.517-10.147-22.664-22.664-22.664z" fill="#88c3e0"/><path d="m30.905 138.044v-53.569c0-2.276 1.845-4.121 4.121-4.121h218.398c2.276 0 4.121 1.845 4.121 4.121v53.569c0 2.276-1.845 4.121-4.121 4.121h-218.398c-2.276 0-4.121-1.845-4.121-4.121z" fill="#43809f"/><path d="m78.287 113.32c-8.534 0-15.453-6.918-15.453-15.453v-17.513h30.905v17.513c0 8.535-6.918 15.453-15.452 15.453z" fill="#f78e36"/><path d="m129.803 113.32c-8.534 0-15.453-6.918-15.453-15.453v-17.513h30.905v17.513c.001 8.535-6.918 15.453-15.452 15.453z" fill="#f78e36"/><path d="m30.905 261.666v-53.569c0-2.276 1.845-4.121 4.121-4.121h218.398c2.276 0 4.121 1.845 4.121 4.121v53.569c0 2.276-1.845 4.121-4.121 4.121h-218.398c-2.276 0-4.121-1.845-4.121-4.121z" fill="#43809f"/><path d="m78.287 236.942c-8.534 0-15.453-6.918-15.453-15.453v-17.513h30.905v17.513c0 8.534-6.918 15.453-15.452 15.453z" fill="#f78e36"/><path d="m129.803 236.942c-8.534 0-15.453-6.918-15.453-15.453v-17.513h30.905v17.513c.001 8.534-6.918 15.453-15.452 15.453z" fill="#f78e36"/><path d="m265.787 420.314h-243.123c-12.517 0-22.664-10.147-22.664-22.664v-78.294c0-12.517 10.147-22.664 22.664-22.664h243.123c12.517 0 22.664 10.147 22.664 22.664v78.294c0 12.517-10.147 22.664-22.664 22.664z" fill="#a9dbf5"/><path d="m265.787 296.692h-30.905c12.517 0 22.664 10.147 22.664 22.664v78.294c0 12.517-10.147 22.664-22.664 22.664h30.905c12.517 0 22.664-10.147 22.664-22.664v-78.294c0-12.517-10.147-22.664-22.664-22.664z" fill="#88c3e0"/><path d="m30.905 385.288v-53.569c0-2.276 1.845-4.121 4.121-4.121h218.398c2.276 0 4.121 1.845 4.121 4.121v53.569c0 2.276-1.845 4.121-4.121 4.121h-218.398c-2.276-.001-4.121-1.845-4.121-4.121z" fill="#43809f"/><g fill="#f78e36"><path d="m78.287 360.563c-8.534 0-15.453-6.918-15.453-15.453v-17.513h30.905v17.513c0 8.535-6.918 15.453-15.452 15.453z"/><path d="m129.803 360.563c-8.534 0-15.453-6.918-15.453-15.453v-17.513h30.905v17.513c.001 8.535-6.918 15.453-15.452 15.453z"/><path d="m190.583 481.095v30.905h-92.716v-30.905h30.906v-30.906h30.905v30.906z"/></g><path d="m431.495 392.897 44.784 44.784c7.917 7.917 7.917 20.753 0 28.671l-19.987 19.987c-7.917 7.917-20.753 7.917-28.671 0l-44.784-44.784c-4.561-4.561-8.488-9.715-11.675-15.322l-4.631-8.148c-3.187-5.608-7.114-10.761-11.675-15.322l-24.541-24.541 37.845-37.845 24.541 24.541c4.561 4.561 9.715 8.488 15.322 11.675l8.148 4.631c5.609 3.186 10.763 7.112 15.324 11.673z" fill="#ffc328"/><path d="m416.172 381.223-8.148-4.63c-5.608-3.187-10.762-7.114-15.323-11.675l-24.541-24.541-21.853 21.853 24.541 24.541c4.561 4.561 9.715 8.488 15.323 11.675l8.148 4.631c5.608 3.187 10.762 7.114 15.322 11.674l44.784 44.784c7.602 7.602 7.883 19.727.886 27.69.33-.29.665-.571.98-.886l19.987-19.987c7.917-7.917 7.917-20.753 0-28.671l-44.784-44.784c-4.56-4.56-9.714-8.487-15.322-11.674z" fill="#ffb200"/><path d="m347.119 346.571-120.194-120.193c-2.929-2.928-7.678-2.928-10.606 0-2.929 2.93-2.929 7.678 0 10.607l120.194 120.193c1.464 1.464 3.384 2.196 5.303 2.196s3.839-.732 5.303-2.196c2.929-2.929 2.929-7.677 0-10.607z" fill="#a9dbf5"/><path d="m368.768 346.776-32.052 32.052c-6.01 6.01-15.844 6.01-21.853 0-6.01-6.01-6.01-15.844 0-21.853l32.052-32.052c6.01-6.01 15.844-6.01 21.853 0 6.01 6.009 6.01 15.843 0 21.853z" fill="#f3f3f3"/><path d="m346.915 324.923-21.853 21.853c6.01-6.01 15.844-6.01 21.853 0 6.01 6.01 6.01 15.844 0 21.853l21.853-21.853c6.01-6.01 6.01-15.844 0-21.853-6.01-6.01-15.844-6.01-21.853 0z" fill="#e4e4e4"/></g></svg>